<svg width="169" height="72" viewBox="0 0 169 72" fill="none" xmlns="http://www.w3.org/2000/svg">
<g filter="url(#filter0_d_0_226)">
<rect x="1" y="1" width="167" height="70" rx="5" fill="white"/>
</g>
<path d="M93.78 43.2C91.9933 43.2 90.6333 42.72 89.7 41.76C88.78 40.8 88.2867 39.4733 88.22 37.78C88.2067 37.42 88.2 36.8333 88.2 36.02C88.2 35.1933 88.2067 34.5933 88.22 34.22C88.2867 32.54 88.7867 31.22 89.72 30.26C90.6533 29.2867 92.0067 28.8 93.78 28.8C94.9667 28.8 95.9733 29.0133 96.8 29.44C97.6267 29.8533 98.2533 30.4 98.68 31.08C99.1067 31.76 99.34 32.4867 99.38 33.26V33.3C99.38 33.4067 99.3333 33.5 99.24 33.58C99.16 33.6467 99.0667 33.68 98.96 33.68H97.86C97.5933 33.68 97.4267 33.5267 97.36 33.22C97.1333 32.22 96.7267 31.52 96.14 31.12C95.5533 30.7067 94.7667 30.5 93.78 30.5C91.4867 30.5 90.3 31.7733 90.22 34.32C90.2067 34.68 90.2 35.2333 90.2 35.98C90.2 36.7267 90.2067 37.2933 90.22 37.68C90.3 40.2267 91.4867 41.5 93.78 41.5C94.7667 41.5 95.5533 41.3 96.14 40.9C96.74 40.4867 97.1467 39.78 97.36 38.78C97.4 38.6067 97.46 38.4867 97.54 38.42C97.62 38.3533 97.7267 38.32 97.86 38.32H98.96C99.08 38.32 99.18 38.36 99.26 38.44C99.3533 38.5067 99.3933 38.6 99.38 38.72C99.34 39.5067 99.1067 40.24 98.68 40.92C98.2533 41.6 97.6267 42.1533 96.8 42.58C95.9733 42.9933 94.9667 43.2 93.78 43.2ZM105.96 43.2C104.587 43.2 103.487 42.78 102.66 41.94C101.847 41.0867 101.4 39.9267 101.32 38.46L101.3 37.78L101.32 37.12C101.414 35.68 101.867 34.5333 102.68 33.68C103.507 32.8267 104.594 32.4 105.94 32.4C107.42 32.4 108.567 32.8733 109.38 33.82C110.194 34.7533 110.6 36.02 110.6 37.62V37.96C110.6 38.0933 110.554 38.2067 110.46 38.3C110.38 38.38 110.274 38.42 110.14 38.42H103.22V38.6C103.26 39.4667 103.52 40.2067 104 40.82C104.494 41.42 105.14 41.72 105.94 41.72C106.554 41.72 107.054 41.6 107.44 41.36C107.84 41.1067 108.134 40.8467 108.32 40.58C108.44 40.42 108.527 40.3267 108.58 40.3C108.647 40.26 108.76 40.24 108.92 40.24H109.9C110.02 40.24 110.12 40.2733 110.2 40.34C110.28 40.4067 110.32 40.5 110.32 40.62C110.32 40.9133 110.134 41.2667 109.76 41.68C109.4 42.0933 108.887 42.4533 108.22 42.76C107.567 43.0533 106.814 43.2 105.96 43.2ZM108.7 37.04V36.98C108.7 36.06 108.447 35.3133 107.94 34.74C107.447 34.1533 106.78 33.86 105.94 33.86C105.1 33.86 104.434 34.1533 103.94 34.74C103.46 35.3133 103.22 36.06 103.22 36.98V37.04H108.7ZM116.172 43C116.038 43 115.925 42.96 115.832 42.88C115.752 42.7867 115.712 42.6733 115.712 42.54V34.2H112.232C112.098 34.2 111.985 34.16 111.892 34.08C111.812 33.9867 111.772 33.8733 111.772 33.74V33.06C111.772 32.9267 111.812 32.82 111.892 32.74C111.985 32.6467 112.098 32.6 112.232 32.6H121.032C121.165 32.6 121.272 32.6467 121.352 32.74C121.445 32.82 121.492 32.9267 121.492 33.06V33.74C121.492 33.8733 121.445 33.9867 121.352 34.08C121.272 34.16 121.165 34.2 121.032 34.2H117.552V42.54C117.552 42.6733 117.512 42.7867 117.432 42.88C117.352 42.96 117.245 43 117.112 43H116.172ZM123.686 43C123.553 43 123.439 42.96 123.346 42.88C123.266 42.7867 123.226 42.6733 123.226 42.54V33.06C123.226 32.9267 123.266 32.82 123.346 32.74C123.439 32.6467 123.553 32.6 123.686 32.6H124.646C124.779 32.6 124.886 32.6467 124.966 32.74C125.059 32.82 125.106 32.9267 125.106 33.06V36H127.186C128.506 36 129.486 36.3133 130.126 36.94C130.779 37.5533 131.106 38.4267 131.106 39.56C131.106 40.7333 130.759 41.6 130.066 42.16C129.386 42.72 128.346 43 126.946 43H123.686ZM132.986 43C132.853 43 132.739 42.96 132.646 42.88C132.566 42.7867 132.526 42.6733 132.526 42.54V33.06C132.526 32.9267 132.566 32.82 132.646 32.74C132.739 32.6467 132.853 32.6 132.986 32.6H133.946C134.079 32.6 134.186 32.6467 134.266 32.74C134.359 32.82 134.406 32.9267 134.406 33.06V42.54C134.406 42.6733 134.359 42.7867 134.266 42.88C134.186 42.96 134.079 43 133.946 43H132.986ZM127.006 41.5C127.833 41.5 128.426 41.3533 128.786 41.06C129.159 40.7667 129.346 40.2667 129.346 39.56C129.346 38.8533 129.159 38.3333 128.786 38C128.426 37.6667 127.833 37.5 127.006 37.5H125.086V41.5H127.006Z" fill="#363853"/>
<g clip-path="url(#clip0_0_226)">
<path d="M64.158 29.6574L63.6872 28.1258C63.0892 26.3861 61.1775 25.455 59.4173 26.046C58.4271 26.3786 57.6495 27.1471 57.3131 28.1258L56.8423 29.6574C56.4461 30.949 56.363 32.3147 56.5996 33.6439C56.8154 34.763 57.5342 35.7245 58.5532 36.2569L58.0259 47.907C57.9553 48.5572 58.1687 49.2064 58.6126 49.6915C59.5671 50.7235 61.1874 50.7952 62.2315 49.8518C62.2879 49.8008 62.342 49.7473 62.3936 49.6915C62.8276 49.2202 63.0406 48.59 62.9803 47.9555L62.4501 36.2555C63.4677 35.7228 64.1853 34.762 64.4008 33.6439C64.6373 32.3147 64.5542 30.949 64.158 29.6574ZM62.9561 33.3917C62.7973 34.1957 62.2176 34.8554 61.4344 35.1233C61.1372 35.2337 60.9457 35.5208 60.96 35.8343L61.5173 48.0701C61.543 48.3101 61.4628 48.5494 61.2973 48.7268C60.8557 49.1588 60.1446 49.1588 59.703 48.7268C59.5292 48.535 59.4503 48.277 59.4874 48.0222L60.0404 35.8343C60.0547 35.5208 59.8632 35.2337 59.5659 35.1233C58.7827 34.8554 58.203 34.1957 58.0442 33.3917C57.8481 32.2881 57.9172 31.1544 58.2459 30.0821L58.7167 28.5499C59.081 27.5763 60.1747 27.079 61.1598 27.4391C61.6806 27.6294 62.091 28.0352 62.2836 28.5499L62.7544 30.0821C63.0828 31.1545 63.1519 32.2881 62.9561 33.3917Z" fill="#363853"/>
<path d="M52.8 25.8723C52.395 25.8723 52.0667 26.1969 52.0667 26.5971V32.8205L50.0815 34.7826C49.9347 34.9272 49.8566 35.1266 49.8667 35.3313L50.5083 48.0157C50.5236 48.2892 50.4232 48.5567 50.2311 48.7543C49.8297 49.1545 49.176 49.1574 48.7709 48.7606C48.7687 48.7585 48.7666 48.7563 48.7645 48.7543C48.5723 48.5567 48.472 48.2892 48.4873 48.0157L49.1333 35.3313C49.1436 35.1267 49.0658 34.9273 48.9192 34.7826L46.9333 32.8205V26.5971C46.9333 26.1969 46.605 25.8723 46.2 25.8723C45.795 25.8723 45.4667 26.1969 45.4667 26.5971V33.1205C45.4667 33.3128 45.544 33.4971 45.6815 33.633L47.6513 35.5806L47.0257 47.9454C46.9592 49.296 48.013 50.4443 49.3795 50.51C50.7459 50.5758 51.9077 49.5343 51.9743 48.1836C51.9782 48.1043 51.9782 48.0248 51.9743 47.9454L51.3487 35.5807L53.3185 33.6331C53.456 33.4972 53.5333 33.3129 53.5333 33.1206V26.5972C53.5333 26.1969 53.205 25.8723 52.8 25.8723Z" fill="#363853"/>
<path d="M48.4 25.8723C47.995 25.8723 47.6667 26.1969 47.6667 26.5971V32.3957C47.6667 32.796 47.995 33.1205 48.4 33.1205C48.805 33.1205 49.1333 32.796 49.1333 32.3957V26.5971C49.1333 26.1969 48.805 25.8723 48.4 25.8723Z" fill="#363853"/>
<path d="M50.6 25.8723C50.195 25.8723 49.8667 26.1969 49.8667 26.5971V32.3957C49.8667 32.796 50.195 33.1205 50.6 33.1205C51.005 33.1205 51.3333 32.796 51.3333 32.3957V26.5971C51.3333 26.1969 51.005 25.8723 50.6 25.8723Z" fill="#363853"/>
<path d="M55 15C42.8498 15 33 24.7355 33 36.7447C33 48.7539 42.8498 58.4894 55 58.4894C67.1502 58.4894 77 48.7539 77 36.7447C76.9863 24.7411 67.1446 15.0136 55 15ZM55 57.0397C43.6597 57.0397 34.4667 47.9534 34.4667 36.7447C34.4667 25.536 43.6597 16.4496 55 16.4496C66.3403 16.4496 75.5333 25.536 75.5333 36.7447C75.5204 47.948 66.3349 57.027 55 57.0397Z" fill="#363853"/>
<path d="M57.3804 50.3511C57.3411 49.9525 56.9824 49.6609 56.5792 49.6998C56.5698 49.7007 56.5604 49.7018 56.5509 49.703L56.5539 49.7023C55.5214 49.8209 54.4784 49.8209 53.446 49.7023C53.0436 49.6556 52.6792 49.9404 52.632 50.3383C52.5848 50.7363 52.8727 51.0966 53.2751 51.1433C54.4201 51.2755 55.5768 51.2755 56.7218 51.1433C57.1248 51.1045 57.4197 50.7498 57.3804 50.3511Z" fill="#363853"/>
<path d="M66.2202 27.4046C65.9599 27.0979 65.4974 27.0577 65.1871 27.315C65.1861 27.3159 65.1851 27.3168 65.184 27.3176C64.8744 27.5756 64.835 28.0328 65.096 28.3389C69.5175 33.5268 69.1793 41.198 64.3179 45.9861C64.031 46.2687 64.0302 46.7278 64.3161 47.0114C64.602 47.295 65.0665 47.2958 65.3534 47.0132C70.756 41.6936 71.1327 33.1695 66.2202 27.4046Z" fill="#363853"/>
<path d="M50.0859 24.5816C50.0854 24.5816 50.085 24.5806 50.0845 24.5806C50.0838 24.5806 50.083 24.5816 50.0822 24.5816H50.0859Z" fill="#363853"/>
<path d="M58.4592 22.6534C55.5932 21.9745 52.5874 22.1569 49.8271 23.1774C49.4479 23.3183 49.2563 23.7363 49.3988 24.111C49.5062 24.3934 49.7794 24.5803 50.0846 24.5806C50.1723 24.5801 50.2592 24.5643 50.3411 24.5335C52.827 23.6147 55.5337 23.4507 58.1145 24.0624C58.5082 24.1565 58.9045 23.9174 58.9996 23.5282C59.0948 23.1391 58.8529 22.7474 58.4592 22.6534Z" fill="#363853"/>
<path d="M45.6492 45.9499C43.1771 43.5106 41.7915 40.1973 41.7999 36.7446C41.7927 33.9861 42.6767 31.2974 44.3233 29.0702C44.5667 28.7502 44.5015 28.2958 44.1778 28.0553C43.854 27.8147 43.3943 27.8791 43.1509 28.1992C43.1466 28.2049 43.1424 28.2106 43.1383 28.2164C38.8984 33.9776 39.5223 41.9299 44.6101 46.9762C44.8968 47.2598 45.3619 47.26 45.6488 46.9766C45.9358 46.6932 45.9359 46.2335 45.6492 45.9499Z" fill="#363853"/>
</g>
<defs>
<filter id="filter0_d_0_226" x="0" y="0" width="169" height="72" filterUnits="userSpaceOnUse" color-interpolation-filters="sRGB">
<feFlood flood-opacity="0" result="BackgroundImageFix"/>
<feColorMatrix in="SourceAlpha" type="matrix" values="0 0 0 0 0 0 0 0 0 0 0 0 0 0 0 0 0 0 127 0" result="hardAlpha"/>
<feMorphology radius="1" operator="dilate" in="SourceAlpha" result="effect1_dropShadow_0_226"/>
<feOffset/>
<feComposite in2="hardAlpha" operator="out"/>
<feColorMatrix type="matrix" values="0 0 0 0 0.925 0 0 0 0 0.925 0 0 0 0 0.925 0 0 0 1 0"/>
<feBlend mode="normal" in2="BackgroundImageFix" result="effect1_dropShadow_0_226"/>
<feBlend mode="normal" in="SourceGraphic" in2="effect1_dropShadow_0_226" result="shape"/>
</filter>
<clipPath id="clip0_0_226">
<rect width="44" height="43.4894" fill="white" transform="translate(33 15)"/>
</clipPath>
</defs>
</svg>
