<svg width="200" height="70" viewBox="0 0 200 70" fill="none" xmlns="http://www.w3.org/2000/svg">
<rect width="200" height="70" rx="5" fill="#FF6838"/>
<path d="M88.2 42C88.0667 42 87.9533 41.96 87.86 41.88C87.78 41.7867 87.74 41.6733 87.74 41.54V28.48C87.74 28.3333 87.78 28.22 87.86 28.14C87.9533 28.0467 88.0667 28 88.2 28H96.9C97.0467 28 97.16 28.0467 97.24 28.14C97.3333 28.22 97.38 28.3333 97.38 28.48V29.28C97.38 29.4133 97.3333 29.5267 97.24 29.62C97.16 29.7 97.0467 29.74 96.9 29.74H89.7V33.78H93.66C95.0733 33.78 96.1733 34.1467 96.96 34.88C97.7467 35.6 98.14 36.5867 98.14 37.84C98.14 38.5333 97.9667 39.2 97.62 39.84C97.2867 40.4667 96.78 40.9867 96.1 41.4C95.4333 41.8 94.62 42 93.66 42H88.2ZM93.42 40.38C94.2467 40.38 94.9067 40.1333 95.4 39.64C95.8933 39.1333 96.14 38.5133 96.14 37.78C96.14 37.0467 95.9067 36.4667 95.44 36.04C94.9867 35.6 94.3133 35.38 93.42 35.38H89.7V40.38H93.42ZM108.813 31.6C108.92 31.6 109.013 31.64 109.093 31.72C109.173 31.8 109.213 31.8933 109.213 32C109.213 32.0933 109.18 32.2133 109.113 32.36L105.313 41.36L105.133 41.76C104.786 42.6 104.466 43.2933 104.173 43.84C103.88 44.3867 103.513 44.8467 103.073 45.22C102.633 45.6067 102.113 45.8 101.513 45.8H100.753C100.62 45.8 100.506 45.76 100.413 45.68C100.333 45.6 100.293 45.4867 100.293 45.34V44.66C100.293 44.5267 100.333 44.4133 100.413 44.32C100.506 44.24 100.62 44.2 100.753 44.2H101.273C101.566 44.2 101.806 44.14 101.993 44.02C102.18 43.9133 102.346 43.7267 102.493 43.46C102.653 43.1933 102.846 42.7867 103.073 42.24L103.413 41.42L99.493 32.36C99.4263 32.1867 99.393 32.0733 99.393 32.02C99.4063 31.9 99.453 31.8 99.533 31.72C99.613 31.64 99.7063 31.6 99.813 31.6H100.753C100.98 31.6 101.146 31.7133 101.253 31.94L104.313 39.28L107.413 31.94C107.506 31.7133 107.673 31.6 107.913 31.6H108.813ZM111.71 45.8C111.577 45.8 111.463 45.7533 111.37 45.66C111.29 45.58 111.25 45.4733 111.25 45.34V32.06C111.25 31.9267 111.29 31.82 111.37 31.74C111.463 31.6467 111.577 31.6 111.71 31.6H112.63C112.763 31.6 112.87 31.6467 112.95 31.74C113.043 31.82 113.09 31.9267 113.09 32.06V32.94C113.837 31.9133 114.93 31.4 116.37 31.4C117.77 31.4 118.817 31.84 119.51 32.72C120.217 33.6 120.597 34.7333 120.65 36.12C120.663 36.2667 120.67 36.4933 120.67 36.8C120.67 37.1067 120.663 37.3333 120.65 37.48C120.597 38.8533 120.217 39.9867 119.51 40.88C118.803 41.76 117.757 42.2 116.37 42.2C114.983 42.2 113.903 41.7 113.13 40.7V45.34C113.13 45.4733 113.09 45.58 113.01 45.66C112.93 45.7533 112.823 45.8 112.69 45.8H111.71ZM115.95 40.58C116.897 40.58 117.583 40.2867 118.01 39.7C118.45 39.1133 118.69 38.34 118.73 37.38C118.743 37.2467 118.75 37.0533 118.75 36.8C118.75 34.28 117.817 33.02 115.95 33.02C115.03 33.02 114.337 33.3267 113.87 33.94C113.417 34.54 113.17 35.26 113.13 36.1L113.11 36.86L113.13 37.64C113.157 38.4267 113.41 39.1133 113.89 39.7C114.37 40.2867 115.057 40.58 115.95 40.58ZM123.604 42C123.471 42 123.357 41.96 123.264 41.88C123.184 41.7867 123.144 41.6733 123.144 41.54V32.06C123.144 31.9267 123.184 31.82 123.264 31.74C123.357 31.6467 123.471 31.6 123.604 31.6H129.584C129.717 31.6 129.824 31.6467 129.904 31.74C129.997 31.82 130.044 31.9267 130.044 32.06V32.74C130.044 32.8733 129.997 32.9867 129.904 33.08C129.824 33.16 129.717 33.2 129.584 33.2H125.024V41.54C125.024 41.6733 124.977 41.7867 124.884 41.88C124.804 41.96 124.697 42 124.564 42H123.604ZM135.683 42.2C134.31 42.2 133.21 41.78 132.383 40.94C131.57 40.0867 131.123 38.9267 131.043 37.46L131.023 36.78L131.043 36.12C131.136 34.68 131.59 33.5333 132.403 32.68C133.23 31.8267 134.316 31.4 135.663 31.4C137.143 31.4 138.29 31.8733 139.103 32.82C139.916 33.7533 140.323 35.02 140.323 36.62V36.96C140.323 37.0933 140.276 37.2067 140.183 37.3C140.103 37.38 139.996 37.42 139.863 37.42H132.943V37.6C132.983 38.4667 133.243 39.2067 133.723 39.82C134.216 40.42 134.863 40.72 135.663 40.72C136.276 40.72 136.776 40.6 137.163 40.36C137.563 40.1067 137.856 39.8467 138.043 39.58C138.163 39.42 138.25 39.3267 138.303 39.3C138.37 39.26 138.483 39.24 138.643 39.24H139.623C139.743 39.24 139.843 39.2733 139.923 39.34C140.003 39.4067 140.043 39.5 140.043 39.62C140.043 39.9133 139.856 40.2667 139.483 40.68C139.123 41.0933 138.61 41.4533 137.943 41.76C137.29 42.0533 136.536 42.2 135.683 42.2ZM138.423 36.04V35.98C138.423 35.06 138.17 34.3133 137.663 33.74C137.17 33.1533 136.503 32.86 135.663 32.86C134.823 32.86 134.156 33.1533 133.663 33.74C133.183 34.3133 132.943 35.06 132.943 35.98V36.04H138.423ZM143.194 45.8C143.061 45.8 142.948 45.7533 142.854 45.66C142.774 45.58 142.734 45.4733 142.734 45.34V32.06C142.734 31.9267 142.774 31.82 142.854 31.74C142.948 31.6467 143.061 31.6 143.194 31.6H144.114C144.248 31.6 144.354 31.6467 144.434 31.74C144.528 31.82 144.574 31.9267 144.574 32.06V32.94C145.321 31.9133 146.414 31.4 147.854 31.4C149.254 31.4 150.301 31.84 150.994 32.72C151.701 33.6 152.081 34.7333 152.134 36.12C152.148 36.2667 152.154 36.4933 152.154 36.8C152.154 37.1067 152.148 37.3333 152.134 37.48C152.081 38.8533 151.701 39.9867 150.994 40.88C150.288 41.76 149.241 42.2 147.854 42.2C146.468 42.2 145.388 41.7 144.614 40.7V45.34C144.614 45.4733 144.574 45.58 144.494 45.66C144.414 45.7533 144.308 45.8 144.174 45.8H143.194ZM147.434 40.58C148.381 40.58 149.068 40.2867 149.494 39.7C149.934 39.1133 150.174 38.34 150.214 37.38C150.228 37.2467 150.234 37.0533 150.234 36.8C150.234 34.28 149.301 33.02 147.434 33.02C146.514 33.02 145.821 33.3267 145.354 33.94C144.901 34.54 144.654 35.26 144.614 36.1L144.594 36.86L144.614 37.64C144.641 38.4267 144.894 39.1133 145.374 39.7C145.854 40.2867 146.541 40.58 147.434 40.58ZM155.088 42C154.955 42 154.842 41.96 154.748 41.88C154.668 41.7867 154.628 41.6733 154.628 41.54V32.06C154.628 31.9267 154.668 31.82 154.748 31.74C154.842 31.6467 154.955 31.6 155.088 31.6H156.048C156.182 31.6 156.288 31.6467 156.368 31.74C156.462 31.82 156.508 31.9267 156.508 32.06V35H158.588C159.908 35 160.888 35.3133 161.528 35.94C162.182 36.5533 162.508 37.4267 162.508 38.56C162.508 39.7333 162.162 40.6 161.468 41.16C160.788 41.72 159.748 42 158.348 42H155.088ZM164.388 42C164.255 42 164.142 41.96 164.048 41.88C163.968 41.7867 163.928 41.6733 163.928 41.54V32.06C163.928 31.9267 163.968 31.82 164.048 31.74C164.142 31.6467 164.255 31.6 164.388 31.6H165.348C165.482 31.6 165.588 31.6467 165.668 31.74C165.762 31.82 165.808 31.9267 165.808 32.06V41.54C165.808 41.6733 165.762 41.7867 165.668 41.88C165.588 41.96 165.482 42 165.348 42H164.388ZM158.408 40.5C159.235 40.5 159.828 40.3533 160.188 40.06C160.562 39.7667 160.748 39.2667 160.748 38.56C160.748 37.8533 160.562 37.3333 160.188 37C159.828 36.6667 159.235 36.5 158.408 36.5H156.488V40.5H158.408Z" fill="white"/>
<g clip-path="url(#clip0_0_159)">
<path d="M76 33.3359C76 31.6467 74.9108 30.2079 73.3982 29.6825C73.1658 24.4417 71.2092 20.4199 67.573 17.7172C64.2543 15.2506 59.6878 14 54 14C48.3122 14 43.7457 15.2506 40.427 17.7173C36.7908 20.4199 34.8342 24.4418 34.6018 29.6826C33.0892 30.2079 32 31.6467 32 33.3359C32 34.3257 32.3742 35.2293 32.9879 35.9141C32.3742 36.5988 32 37.5024 32 38.4922C32 40.1918 33.1026 41.6378 34.6296 42.1551C35.1825 48.0454 40.1897 52.6719 46.2656 52.6719H61.7344C67.8103 52.6719 72.8175 48.0454 73.3704 42.1551C74.8974 41.6378 76 40.1918 76 38.4922C76 37.5024 75.6258 36.5988 75.0121 35.9141C75.6258 35.2293 76 34.3257 76 33.3359ZM54 16.5781C61.3933 16.5781 70.1513 18.8572 70.8034 29.4688H37.1966C37.8487 18.8572 46.6067 16.5781 54 16.5781ZM35.8672 32.0469H72.1328C72.8436 32.0469 73.4219 32.6251 73.4219 33.3359C73.4219 34.0467 72.8436 34.625 72.1328 34.625H35.8672C35.1564 34.625 34.5781 34.0467 34.5781 33.3359C34.5781 32.6251 35.1564 32.0469 35.8672 32.0469ZM61.7344 50.0938H46.2656C41.6846 50.0938 37.883 46.7265 37.2496 42.3594H38.4453C39.3071 42.3594 39.5794 42.6525 40.1219 43.2366C40.7886 43.9545 41.7017 44.9375 43.6875 44.9375C45.6874 44.9375 46.5766 43.9444 47.226 43.2193C47.7387 42.6468 47.996 42.3594 48.8438 42.3594C49.6915 42.3594 49.9488 42.6468 50.4615 43.2193C51.1109 43.9444 52.0001 44.9375 54 44.9375C55.9999 44.9375 56.8891 43.9444 57.5385 43.2193C58.0512 42.6468 58.3085 42.3594 59.1562 42.3594C60.004 42.3594 60.2613 42.6468 60.774 43.2193C61.4234 43.9444 62.3126 44.9375 64.3125 44.9375C66.3124 44.9375 67.2016 43.9444 67.851 43.2193C68.3637 42.6468 68.621 42.3594 69.4688 42.3594H70.7504C70.117 46.7265 66.3154 50.0938 61.7344 50.0938ZM72.1328 39.7812H69.4688C67.4689 39.7812 66.5796 40.7743 65.9303 41.4995C65.4176 42.072 65.1603 42.3594 64.3125 42.3594C63.4647 42.3594 63.2074 42.072 62.6947 41.4995C62.0454 40.7743 61.1561 39.7812 59.1562 39.7812C57.1564 39.7812 56.2671 40.7743 55.6178 41.4995C55.1051 42.072 54.8478 42.3594 54 42.3594C53.1522 42.3594 52.8949 42.072 52.3822 41.4995C51.7329 40.7743 50.8436 39.7812 48.8438 39.7812C46.8439 39.7812 45.9546 40.7743 45.3053 41.4995C44.7926 42.072 44.5353 42.3594 43.6875 42.3594C42.8257 42.3594 42.5534 42.0662 42.0109 41.4821C41.3442 40.7643 40.4312 39.7812 38.4453 39.7812H35.8672C35.1564 39.7812 34.5781 39.203 34.5781 38.4922C34.5781 37.7814 35.1564 37.2031 35.8672 37.2031H72.1328C72.8436 37.2031 73.4219 37.7814 73.4219 38.4922C73.4219 39.203 72.8436 39.7812 72.1328 39.7812Z" fill="white"/>
<path d="M46.2656 26.8906C46.9776 26.8906 47.5547 26.3135 47.5547 25.6016C47.5547 24.8896 46.9776 24.3125 46.2656 24.3125C45.5537 24.3125 44.9766 24.8896 44.9766 25.6016C44.9766 26.3135 45.5537 26.8906 46.2656 26.8906Z" fill="white"/>
<path d="M61.7344 26.8906C62.4463 26.8906 63.0234 26.3135 63.0234 25.6016C63.0234 24.8896 62.4463 24.3125 61.7344 24.3125C61.0224 24.3125 60.4453 24.8896 60.4453 25.6016C60.4453 26.3135 61.0224 26.8906 61.7344 26.8906Z" fill="white"/>
<path d="M56.5781 24.3125C57.2901 24.3125 57.8672 23.7354 57.8672 23.0234C57.8672 22.3115 57.2901 21.7344 56.5781 21.7344C55.8662 21.7344 55.2891 22.3115 55.2891 23.0234C55.2891 23.7354 55.8662 24.3125 56.5781 24.3125Z" fill="white"/>
<path d="M51.4219 21.7344C52.1338 21.7344 52.7109 21.1572 52.7109 20.4453C52.7109 19.7334 52.1338 19.1562 51.4219 19.1562C50.7099 19.1562 50.1328 19.7334 50.1328 20.4453C50.1328 21.1572 50.7099 21.7344 51.4219 21.7344Z" fill="white"/>
</g>
<defs>
<clipPath id="clip0_0_159">
<rect width="44" height="44" fill="white" transform="translate(32 13)"/>
</clipPath>
</defs>
</svg>
