<svg width="183" height="72" viewBox="0 0 183 72" fill="none" xmlns="http://www.w3.org/2000/svg">
<g filter="url(#filter0_d_0_170)">
<rect x="1" y="1" width="181" height="70" rx="5" fill="white"/>
</g>
<path d="M89.2 43C89.0667 43 88.9533 42.96 88.86 42.88C88.78 42.7867 88.74 42.6733 88.74 42.54V29.48C88.74 29.3333 88.78 29.22 88.86 29.14C88.9533 29.0467 89.0667 29 89.2 29H99.06C99.2067 29 99.32 29.0467 99.4 29.14C99.4933 29.22 99.54 29.3333 99.54 29.48V42.54C99.54 42.6733 99.4933 42.7867 99.4 42.88C99.3067 42.96 99.1933 43 99.06 43H98.04C97.9067 43 97.7933 42.96 97.7 42.88C97.62 42.7867 97.58 42.6733 97.58 42.54V30.8H90.7V42.54C90.7 42.6733 90.6533 42.7867 90.56 42.88C90.4667 42.96 90.3533 43 90.22 43H89.2ZM111.597 32.6C111.704 32.6 111.797 32.64 111.877 32.72C111.971 32.8 112.017 32.8933 112.017 33V42.54C112.017 42.6733 111.971 42.7867 111.877 42.88C111.797 42.96 111.691 43 111.557 43H110.617C110.484 43 110.371 42.96 110.277 42.88C110.197 42.7867 110.157 42.6733 110.157 42.54V35.28L104.617 42.7C104.471 42.9 104.297 43 104.097 43H103.197C103.077 43 102.971 42.96 102.877 42.88C102.797 42.7867 102.757 42.6867 102.757 42.58V33.06C102.757 32.9267 102.797 32.82 102.877 32.74C102.971 32.6467 103.084 32.6 103.217 32.6H104.177C104.311 32.6 104.417 32.6467 104.497 32.74C104.591 32.82 104.637 32.9267 104.637 33.06V40.28L110.157 32.9C110.304 32.7 110.477 32.6 110.677 32.6H111.597ZM123.805 45.52C123.672 45.52 123.558 45.48 123.465 45.4C123.385 45.32 123.345 45.2067 123.345 45.06V43H115.405C115.272 43 115.158 42.96 115.065 42.88C114.985 42.7867 114.945 42.6733 114.945 42.54V33.06C114.945 32.9267 114.985 32.82 115.065 32.74C115.158 32.6467 115.272 32.6 115.405 32.6H116.365C116.498 32.6 116.605 32.6467 116.685 32.74C116.778 32.82 116.825 32.9267 116.825 33.06V41.4H121.945V33.06C121.945 32.9267 121.985 32.82 122.065 32.74C122.145 32.6467 122.252 32.6 122.385 32.6H123.345C123.478 32.6 123.585 32.6467 123.665 32.74C123.758 32.82 123.805 32.9267 123.805 33.06L123.785 41.4H124.745C124.878 41.4 124.985 41.4467 125.065 41.54C125.158 41.62 125.205 41.7267 125.205 41.86V45.06C125.205 45.1933 125.158 45.3 125.065 45.38C124.985 45.4733 124.878 45.52 124.745 45.52H123.805ZM136.168 45.52C136.035 45.52 135.921 45.48 135.828 45.4C135.748 45.32 135.708 45.2067 135.708 45.06V43H127.768C127.635 43 127.521 42.96 127.428 42.88C127.348 42.7867 127.308 42.6733 127.308 42.54V33.06C127.308 32.9267 127.348 32.82 127.428 32.74C127.521 32.6467 127.635 32.6 127.768 32.6H128.728C128.861 32.6 128.968 32.6467 129.048 32.74C129.141 32.82 129.188 32.9267 129.188 33.06V41.4H134.308V33.06C134.308 32.9267 134.348 32.82 134.428 32.74C134.508 32.6467 134.615 32.6 134.748 32.6H135.708C135.841 32.6 135.948 32.6467 136.028 32.74C136.121 32.82 136.168 32.9267 136.168 33.06L136.148 41.4H137.108C137.241 41.4 137.348 41.4467 137.428 41.54C137.521 41.62 137.568 41.7267 137.568 41.86V45.06C137.568 45.1933 137.521 45.3 137.428 45.38C137.348 45.4733 137.241 45.52 137.108 45.52H136.168ZM142.571 43.2C141.918 43.2 141.311 43.0667 140.751 42.8C140.191 42.5333 139.745 42.1733 139.411 41.72C139.091 41.2533 138.931 40.74 138.931 40.18C138.931 39.3 139.291 38.58 140.011 38.02C140.745 37.4467 141.731 37.0733 142.971 36.9L145.951 36.48V35.9C145.951 34.54 145.171 33.86 143.611 33.86C143.025 33.86 142.545 33.9867 142.171 34.24C141.798 34.48 141.518 34.7667 141.331 35.1C141.291 35.22 141.238 35.3067 141.171 35.36C141.118 35.4133 141.038 35.44 140.931 35.44H140.071C139.951 35.44 139.845 35.4 139.751 35.32C139.671 35.2267 139.631 35.12 139.631 35C139.645 34.68 139.791 34.32 140.071 33.92C140.365 33.5067 140.811 33.1533 141.411 32.86C142.011 32.5533 142.751 32.4 143.631 32.4C145.125 32.4 146.198 32.7533 146.851 33.46C147.505 34.1533 147.831 35.02 147.831 36.06V42.54C147.831 42.6733 147.785 42.7867 147.691 42.88C147.611 42.96 147.505 43 147.371 43H146.451C146.318 43 146.205 42.96 146.111 42.88C146.031 42.7867 145.991 42.6733 145.991 42.54V41.68C145.698 42.1067 145.271 42.4667 144.711 42.76C144.151 43.0533 143.438 43.2 142.571 43.2ZM142.991 41.7C143.858 41.7 144.565 41.42 145.111 40.86C145.671 40.2867 145.951 39.4667 145.951 38.4V37.84L143.631 38.18C142.685 38.3133 141.971 38.54 141.491 38.86C141.011 39.1667 140.771 39.56 140.771 40.04C140.771 40.5733 140.991 40.9867 141.431 41.28C141.871 41.56 142.391 41.7 142.991 41.7Z" fill="#363853"/>
<g clip-path="url(#clip0_0_170)">
<path d="M76.8581 57.7521C76.6233 57.9838 76.2762 58.0611 75.9657 57.9499L40.2714 45.2228C39.0313 45.9811 37.4584 46.1587 36.0158 45.5613C33.6211 44.5694 32.4798 41.8141 33.4717 39.4193C35.8108 33.7725 39.1881 28.718 43.5099 24.3961C47.8318 20.0742 52.8863 16.6969 58.5332 14.3578C59.1196 14.115 59.7274 14 60.3259 14C62.1714 14.0001 63.9262 15.0936 64.6751 16.902C65.179 18.1187 65.1314 19.4282 64.6494 20.5526L77.0674 56.8624C77.1742 57.1745 77.0929 57.5203 76.8581 57.7521ZM45.676 45.3252L49.459 46.6739C49.9031 46.2007 50.1196 45.5493 50.0328 44.8905C49.9564 44.3104 49.6587 43.7947 49.1945 43.4385C48.7304 43.0823 48.1556 42.9284 47.5751 43.0046C46.9951 43.081 46.4795 43.3786 46.1233 43.8429C45.7951 44.2706 45.639 44.7924 45.676 45.3252ZM63.0872 17.5599C62.4579 16.0407 60.7098 15.3166 59.1909 15.946C48.1875 20.5037 39.6176 29.0737 35.0597 40.0772C34.7549 40.813 34.7549 41.6235 35.0597 42.3595C35.3645 43.0954 35.9377 43.6685 36.6735 43.9733C37.4094 44.2781 38.22 44.2781 38.9559 43.9733C39.6917 43.6685 40.2649 43.0954 40.5697 42.3595C42.5205 37.6495 45.3376 33.4336 48.9425 29.8287C52.5474 26.2238 56.7633 23.4069 61.4732 21.4559C62.9924 20.8268 63.7165 19.0789 63.0872 17.5599ZM70.7221 43.6202C70.6443 43.6221 70.5664 43.6265 70.4888 43.6367C69.9088 43.7131 69.3931 44.0108 69.037 44.4749C68.6808 44.9391 68.5267 45.5142 68.603 46.0942C68.7607 47.2917 69.8629 48.1375 71.0608 47.98C71.4303 47.9314 71.7772 47.7881 72.0731 47.57L70.7221 43.6202ZM72.6443 49.241C72.2256 49.469 71.7656 49.6208 71.2851 49.6841C69.1477 49.9662 67.1803 48.4557 66.899 46.3185C66.7627 45.2833 67.0377 44.257 67.6734 43.4285C68.2857 42.6306 69.1622 42.1093 70.151 41.9503L68.4429 36.9557L66.4786 38.4631C66.1021 38.7518 65.5625 38.681 65.2737 38.3044C64.9847 37.9279 65.0558 37.3884 65.4323 37.0995L67.8562 35.2397L63.4137 22.2498C63.0411 22.5738 62.612 22.8448 62.1314 23.044C53.0237 26.8165 45.9304 33.9098 42.1581 43.0173C42.0269 43.334 41.864 43.6281 41.676 43.899L43.9774 44.7195C44.0577 44.0262 44.3239 43.3648 44.7598 42.7967C45.3954 41.9682 46.3157 41.437 47.3509 41.3007C47.5243 41.2779 47.6972 41.2665 47.8693 41.2665C48.7242 41.2665 49.5512 41.5458 50.2409 42.075C51.0694 42.7107 51.6006 43.6308 51.737 44.6662C51.8593 45.5956 51.6424 46.5162 51.1554 47.2788L61.838 51.0877L62.2428 50.1103C62.38 49.7793 62.6999 49.5795 63.0371 49.5795C63.1467 49.5795 63.2581 49.6007 63.3657 49.6452C63.8041 49.8268 64.0124 50.3296 63.8308 50.768L63.459 51.6656L74.8645 55.7324L72.6443 49.241Z" fill="#363853"/>
<path d="M42.394 34.9451C42.3914 34.9492 42.3843 34.9601 42.3815 34.964C42.1184 35.3587 41.5859 35.4647 41.191 35.2018C40.7968 34.9394 40.6899 34.4066 40.9508 34.0118C41.1153 33.7589 41.3907 33.621 41.672 33.621C41.8311 33.621 41.9921 33.6652 42.1358 33.7576C42.535 34.0142 42.6506 34.5459 42.394 34.9451Z" fill="#363853"/>
<path d="M41.0871 37.08C40.2496 38.5483 39.4968 40.0851 38.8496 41.6473C38.668 42.0859 38.165 42.2939 37.7268 42.1123C37.2883 41.9307 37.0802 41.428 37.2618 40.9896C37.9364 39.361 38.7212 37.7591 39.5942 36.2285C39.7527 35.9506 40.0428 35.7947 40.3414 35.7947C40.4858 35.7947 40.6321 35.8312 40.7663 35.9077C41.1786 36.1429 41.3223 36.6678 41.0871 37.08Z" fill="#363853"/>
<path d="M60.0054 47.0012C59.8351 47.0237 59.6621 47.035 59.4913 47.035C57.539 47.035 55.8744 45.5737 55.6193 43.6358C55.338 41.4987 56.8476 39.5311 58.9847 39.2497C59.1551 39.2272 59.3281 39.2159 59.4989 39.2159C61.4511 39.2159 63.1157 40.6772 63.3708 42.6153C63.6521 44.7523 62.1424 46.7198 60.0054 47.0012ZM61.6668 42.8396C61.5238 41.7536 60.5919 40.9347 59.4989 40.9347C59.4028 40.9347 59.3053 40.941 59.2091 40.9538C58.0116 41.1115 57.1658 42.2139 57.3234 43.4115C57.4664 44.4974 58.3983 45.3162 59.4913 45.3162C59.5873 45.3162 59.6849 45.3098 59.781 45.2971C60.9785 45.1393 61.8245 44.0369 61.6668 42.8396Z" fill="#363853"/>
<path d="M59.7818 36.3116C59.6113 36.3341 59.4384 36.3455 59.2676 36.3455C57.3154 36.3455 55.6507 34.8841 55.3957 32.9461C55.2593 31.9108 55.5343 30.8846 56.17 30.056C56.8056 29.2276 57.7258 28.6963 58.7611 28.56C58.9313 28.5375 59.1042 28.5263 59.275 28.5263C61.2272 28.5263 62.8919 29.9876 63.1471 31.9257C63.4285 34.0626 61.9188 36.0301 59.7818 36.3116ZM61.4432 32.1499C61.3002 31.0639 60.3681 30.245 59.2752 30.245C59.1792 30.245 59.0816 30.2515 58.9855 30.2641C58.4055 30.3406 57.8898 30.6383 57.5336 31.1024C57.1774 31.5666 57.0233 32.1417 57.0997 32.7218C57.2427 33.8077 58.1747 34.6266 59.2676 34.6266C59.3637 34.6266 59.4612 34.6203 59.5574 34.6075C60.7547 34.4498 61.6007 33.3474 61.4432 32.1499Z" fill="#363853"/>
<path d="M54.1138 39.8718L51.4724 40.2196C51.0021 40.2821 50.5701 39.9504 50.5082 39.4799C50.4461 39.0093 50.7774 38.5776 51.2479 38.5157L53.8893 38.1679C53.9274 38.1628 53.9652 38.1604 54.0026 38.1604C54.4272 38.1604 54.7965 38.4752 54.8534 38.9076C54.9156 39.3781 54.5844 39.8099 54.1138 39.8718Z" fill="#363853"/>
<path d="M52.7743 33.5299L52.5411 35.3022C52.4792 35.7728 52.0476 36.1042 51.577 36.0421C51.1064 35.9801 50.7752 35.5485 50.8371 35.0779L51.0705 33.3056C51.1274 32.8731 51.4966 32.5583 51.9213 32.5583C51.9587 32.5583 51.9965 32.5607 52.0345 32.5657C52.5051 32.6277 52.8363 33.0593 52.7743 33.5299Z" fill="#363853"/>
</g>
<defs>
<filter id="filter0_d_0_170" x="0" y="0" width="183" height="72" filterUnits="userSpaceOnUse" color-interpolation-filters="sRGB">
<feFlood flood-opacity="0" result="BackgroundImageFix"/>
<feColorMatrix in="SourceAlpha" type="matrix" values="0 0 0 0 0 0 0 0 0 0 0 0 0 0 0 0 0 0 127 0" result="hardAlpha"/>
<feMorphology radius="1" operator="dilate" in="SourceAlpha" result="effect1_dropShadow_0_170"/>
<feOffset/>
<feComposite in2="hardAlpha" operator="out"/>
<feColorMatrix type="matrix" values="0 0 0 0 0.925 0 0 0 0 0.925 0 0 0 0 0.925 0 0 0 1 0"/>
<feBlend mode="normal" in2="BackgroundImageFix" result="effect1_dropShadow_0_170"/>
<feBlend mode="normal" in="SourceGraphic" in2="effect1_dropShadow_0_170" result="shape"/>
</filter>
<clipPath id="clip0_0_170">
<rect width="44" height="44" fill="white" transform="matrix(1 0 0 -1 33.1128 58)"/>
</clipPath>
</defs>
</svg>
