<svg width="282" height="72" viewBox="0 0 282 72" fill="none" xmlns="http://www.w3.org/2000/svg">
<g filter="url(#filter0_d_0_196)">
<rect x="1" y="1" width="280" height="70" rx="5" fill="white"/>
</g>
<path d="M87.8 43C87.6933 43 87.6 42.96 87.52 42.88C87.44 42.8 87.4 42.7067 87.4 42.6C87.4 42.5333 87.4067 42.46 87.42 42.38L92.38 29.44C92.4333 29.3067 92.5067 29.2 92.6 29.12C92.6933 29.04 92.8333 29 93.02 29H94.38C94.5533 29 94.6867 29.04 94.78 29.12C94.8867 29.2 94.9667 29.3067 95.02 29.44L99.96 42.38C99.9867 42.46 100 42.5333 100 42.6C100 42.7067 99.96 42.8 99.88 42.88C99.8 42.96 99.7067 43 99.6 43H98.58C98.42 43 98.3 42.96 98.22 42.88C98.1533 42.8 98.1067 42.7267 98.08 42.66L96.98 39.82H90.42L89.32 42.66C89.3067 42.7267 89.26 42.8 89.18 42.88C89.1 42.96 88.98 43 88.82 43H87.8ZM91 38.1H96.4L93.7 31L91 38.1ZM105.498 43.2C104.712 43.2 104.045 43.1067 103.498 42.92C102.965 42.72 102.532 42.4733 102.198 42.18C101.878 41.8733 101.645 41.56 101.498 41.24C101.352 40.9067 101.272 40.6 101.258 40.32C101.258 40.2 101.298 40.1067 101.378 40.04C101.458 39.96 101.552 39.92 101.658 39.92H102.598C102.718 39.92 102.818 39.9533 102.898 40.02C102.978 40.0733 103.038 40.1733 103.078 40.32C103.238 40.8267 103.545 41.18 103.998 41.38C104.452 41.58 105.005 41.68 105.658 41.68C106.085 41.68 106.478 41.6267 106.838 41.52C107.198 41.4 107.478 41.2133 107.678 40.96C107.892 40.7067 107.998 40.3933 107.998 40.02C107.998 39.4733 107.838 39.06 107.518 38.78C107.212 38.5 106.732 38.36 106.078 38.36H104.978C104.845 38.36 104.738 38.32 104.658 38.24C104.578 38.16 104.538 38.0533 104.538 37.92V37.38C104.538 37.26 104.578 37.16 104.658 37.08C104.738 36.9867 104.845 36.94 104.978 36.94H105.958C106.505 36.94 106.925 36.8333 107.218 36.62C107.512 36.4067 107.658 36.0667 107.658 35.6C107.658 35.32 107.592 35.0533 107.458 34.8C107.325 34.5467 107.098 34.34 106.778 34.18C106.472 34.0067 106.045 33.92 105.498 33.92C104.725 33.92 104.178 34.0533 103.858 34.32C103.552 34.5733 103.332 34.9533 103.198 35.46C103.145 35.6067 103.078 35.7067 102.998 35.76C102.932 35.8133 102.832 35.84 102.698 35.84H101.798C101.678 35.84 101.578 35.8067 101.498 35.74C101.418 35.6733 101.378 35.58 101.378 35.46C101.392 35.06 101.478 34.68 101.638 34.32C101.812 33.96 102.065 33.6333 102.398 33.34C102.745 33.0467 103.172 32.82 103.678 32.66C104.198 32.4867 104.805 32.4 105.498 32.4C106.498 32.4 107.285 32.5533 107.858 32.86C108.445 33.1667 108.858 33.5467 109.098 34C109.352 34.44 109.478 34.88 109.478 35.32C109.478 35.84 109.392 36.2733 109.218 36.62C109.058 36.9667 108.738 37.26 108.258 37.5C108.858 37.7267 109.272 38.0667 109.498 38.52C109.725 38.9733 109.845 39.5 109.858 40.1C109.872 40.7933 109.685 41.3667 109.298 41.82C108.925 42.2733 108.412 42.62 107.758 42.86C107.105 43.0867 106.352 43.2 105.498 43.2ZM112.553 43C112.433 43 112.326 42.96 112.233 42.88C112.153 42.7867 112.113 42.6867 112.113 42.58V33.06C112.113 32.9267 112.153 32.82 112.233 32.74C112.326 32.6467 112.439 32.6 112.573 32.6H113.533C113.666 32.6 113.773 32.6467 113.853 32.74C113.933 32.82 113.973 32.9267 113.973 33.06V41.54L113.453 41L119.513 32.9C119.579 32.82 119.653 32.7533 119.733 32.7C119.813 32.6333 119.913 32.6 120.033 32.6H120.953C121.059 32.6 121.153 32.64 121.233 32.72C121.326 32.8 121.373 32.8933 121.373 33V42.54C121.373 42.6733 121.326 42.7867 121.233 42.88C121.153 42.96 121.046 43 120.913 43H119.973C119.826 43 119.713 42.96 119.633 42.88C119.553 42.7867 119.513 42.6733 119.513 42.54V34.56L120.073 34.54L113.973 42.7C113.919 42.7667 113.853 42.8333 113.773 42.9C113.693 42.9667 113.586 43 113.453 43H112.553ZM127.2 43.2C126.534 43.2 125.927 43.0667 125.38 42.8C124.834 42.5333 124.394 42.1733 124.06 41.72C123.727 41.2667 123.56 40.7533 123.56 40.18C123.56 39.26 123.934 38.5267 124.68 37.98C125.427 37.4333 126.4 37.0733 127.6 36.9L130.58 36.48V35.9C130.58 35.26 130.394 34.76 130.02 34.4C129.66 34.04 129.067 33.86 128.24 33.86C127.64 33.86 127.154 33.98 126.78 34.22C126.42 34.46 126.167 34.7667 126.02 35.14C125.94 35.34 125.8 35.44 125.6 35.44H124.7C124.554 35.44 124.44 35.4 124.36 35.32C124.294 35.2267 124.26 35.12 124.26 35C124.26 34.8 124.334 34.5533 124.48 34.26C124.64 33.9667 124.88 33.68 125.2 33.4C125.52 33.12 125.927 32.8867 126.42 32.7C126.927 32.5 127.54 32.4 128.26 32.4C129.06 32.4 129.734 32.5067 130.28 32.72C130.827 32.92 131.254 33.1933 131.56 33.54C131.88 33.8867 132.107 34.28 132.24 34.72C132.387 35.16 132.46 35.6067 132.46 36.06V42.54C132.46 42.6733 132.414 42.7867 132.32 42.88C132.24 42.96 132.134 43 132 43H131.08C130.934 43 130.82 42.96 130.74 42.88C130.66 42.7867 130.62 42.6733 130.62 42.54V41.68C130.447 41.92 130.214 42.16 129.92 42.4C129.627 42.6267 129.26 42.82 128.82 42.98C128.38 43.1267 127.84 43.2 127.2 43.2ZM127.62 41.7C128.167 41.7 128.667 41.5867 129.12 41.36C129.574 41.12 129.927 40.7533 130.18 40.26C130.447 39.7667 130.58 39.1467 130.58 38.4V37.84L128.26 38.18C127.314 38.3133 126.6 38.54 126.12 38.86C125.64 39.1667 125.4 39.56 125.4 40.04C125.4 40.4133 125.507 40.7267 125.72 40.98C125.947 41.22 126.227 41.4 126.56 41.52C126.907 41.64 127.26 41.7 127.62 41.7ZM138.515 43C138.382 43 138.269 42.96 138.175 42.88C138.095 42.7867 138.055 42.6733 138.055 42.54V34.2H134.575C134.442 34.2 134.329 34.16 134.235 34.08C134.155 33.9867 134.115 33.8733 134.115 33.74V33.06C134.115 32.9267 134.155 32.82 134.235 32.74C134.329 32.6467 134.442 32.6 134.575 32.6H143.375C143.509 32.6 143.615 32.6467 143.695 32.74C143.789 32.82 143.835 32.9267 143.835 33.06V33.74C143.835 33.8733 143.789 33.9867 143.695 34.08C143.615 34.16 143.509 34.2 143.375 34.2H139.895V42.54C139.895 42.6733 139.855 42.7867 139.775 42.88C139.695 42.96 139.582 43 139.435 43H138.515ZM149.77 43.2C148.823 43.2 148.003 43.02 147.31 42.66C146.63 42.2867 146.103 41.76 145.73 41.08C145.357 40.3867 145.157 39.56 145.13 38.6C145.117 38.4 145.11 38.1333 145.11 37.8C145.11 37.4667 145.117 37.2 145.13 37C145.157 36.04 145.357 35.22 145.73 34.54C146.103 33.8467 146.63 33.32 147.31 32.96C148.003 32.5867 148.823 32.4 149.77 32.4C150.543 32.4 151.203 32.5067 151.75 32.72C152.31 32.9333 152.77 33.2067 153.13 33.54C153.49 33.8733 153.757 34.2333 153.93 34.62C154.117 35.0067 154.217 35.3733 154.23 35.72C154.243 35.8533 154.203 35.96 154.11 36.04C154.017 36.12 153.903 36.16 153.77 36.16H152.81C152.677 36.16 152.577 36.1333 152.51 36.08C152.443 36.0133 152.377 35.9067 152.31 35.76C152.07 35.1067 151.743 34.6467 151.33 34.38C150.917 34.1133 150.403 33.98 149.79 33.98C148.99 33.98 148.337 34.2267 147.83 34.72C147.337 35.2133 147.07 36.0067 147.03 37.1C147.017 37.58 147.017 38.0467 147.03 38.5C147.07 39.6067 147.337 40.4067 147.83 40.9C148.337 41.38 148.99 41.62 149.79 41.62C150.403 41.62 150.917 41.4867 151.33 41.22C151.743 40.9533 152.07 40.4933 152.31 39.84C152.377 39.6933 152.443 39.5933 152.51 39.54C152.577 39.4733 152.677 39.44 152.81 39.44H153.77C153.903 39.44 154.017 39.48 154.11 39.56C154.203 39.64 154.243 39.7467 154.23 39.88C154.217 40.16 154.157 40.4467 154.05 40.74C153.943 41.0333 153.77 41.3333 153.53 41.64C153.303 41.9333 153.017 42.2 152.67 42.44C152.323 42.6667 151.903 42.8533 151.41 43C150.93 43.1333 150.383 43.2 149.77 43.2ZM157.065 43C156.932 43 156.818 42.96 156.725 42.88C156.645 42.7867 156.605 42.6733 156.605 42.54V33.06C156.605 32.9267 156.645 32.82 156.725 32.74C156.818 32.6467 156.932 32.6 157.065 32.6H158.005C158.138 32.6 158.245 32.6467 158.325 32.74C158.418 32.82 158.465 32.9267 158.465 33.06V36.9H160.285L162.985 32.9C163.052 32.8067 163.125 32.7333 163.205 32.68C163.285 32.6267 163.392 32.6 163.525 32.6H164.565C164.685 32.6 164.785 32.6267 164.865 32.68C164.945 32.7333 164.985 32.8133 164.985 32.92C164.985 32.9467 164.972 32.9867 164.945 33.04C164.932 33.08 164.912 33.12 164.885 33.16L161.885 37.58L165.285 42.42C165.352 42.5 165.385 42.5867 165.385 42.68C165.385 42.7867 165.345 42.8667 165.265 42.92C165.198 42.9733 165.105 43 164.985 43H163.765C163.645 43 163.545 42.9733 163.465 42.92C163.385 42.8667 163.312 42.7933 163.245 42.7L160.305 38.52H158.465V42.54C158.465 42.6733 158.418 42.7867 158.325 42.88C158.245 42.96 158.138 43 158.005 43H157.065ZM170.228 43.2C169.561 43.2 168.954 43.0667 168.408 42.8C167.861 42.5333 167.421 42.1733 167.088 41.72C166.754 41.2667 166.588 40.7533 166.588 40.18C166.588 39.26 166.961 38.5267 167.708 37.98C168.454 37.4333 169.428 37.0733 170.628 36.9L173.608 36.48V35.9C173.608 35.26 173.421 34.76 173.048 34.4C172.688 34.04 172.094 33.86 171.268 33.86C170.668 33.86 170.181 33.98 169.808 34.22C169.448 34.46 169.194 34.7667 169.048 35.14C168.968 35.34 168.828 35.44 168.628 35.44H167.728C167.581 35.44 167.468 35.4 167.388 35.32C167.321 35.2267 167.288 35.12 167.288 35C167.288 34.8 167.361 34.5533 167.508 34.26C167.668 33.9667 167.908 33.68 168.228 33.4C168.548 33.12 168.954 32.8867 169.448 32.7C169.954 32.5 170.568 32.4 171.288 32.4C172.088 32.4 172.761 32.5067 173.308 32.72C173.854 32.92 174.281 33.1933 174.588 33.54C174.908 33.8867 175.134 34.28 175.268 34.72C175.414 35.16 175.488 35.6067 175.488 36.06V42.54C175.488 42.6733 175.441 42.7867 175.348 42.88C175.268 42.96 175.161 43 175.028 43H174.108C173.961 43 173.848 42.96 173.768 42.88C173.688 42.7867 173.648 42.6733 173.648 42.54V41.68C173.474 41.92 173.241 42.16 172.948 42.4C172.654 42.6267 172.288 42.82 171.848 42.98C171.408 43.1267 170.868 43.2 170.228 43.2ZM170.648 41.7C171.194 41.7 171.694 41.5867 172.148 41.36C172.601 41.12 172.954 40.7533 173.208 40.26C173.474 39.7667 173.608 39.1467 173.608 38.4V37.84L171.288 38.18C170.341 38.3133 169.628 38.54 169.148 38.86C168.668 39.1667 168.428 39.56 168.428 40.04C168.428 40.4133 168.534 40.7267 168.748 40.98C168.974 41.22 169.254 41.4 169.588 41.52C169.934 41.64 170.288 41.7 170.648 41.7ZM184.843 43C184.696 43 184.583 42.96 184.503 42.88C184.423 42.7867 184.383 42.6733 184.383 42.54V39.28H182.083V39.18C180.829 39.18 179.896 38.8733 179.283 38.26C178.683 37.6333 178.383 36.84 178.383 35.88C178.383 34.76 178.709 33.9333 179.363 33.4C180.029 32.8667 181.029 32.6 182.363 32.6H185.803C185.936 32.6 186.043 32.6467 186.123 32.74C186.216 32.82 186.263 32.9267 186.263 33.06V42.54C186.263 42.6733 186.216 42.7867 186.123 42.88C186.043 42.96 185.936 43 185.803 43H184.843ZM178.503 43C178.383 43 178.283 42.96 178.203 42.88C178.123 42.8 178.083 42.7067 178.083 42.6C178.083 42.5467 178.089 42.4933 178.103 42.44C178.129 42.3733 178.169 42.3067 178.223 42.24L180.603 38.72L182.523 38.86L179.983 42.7C179.929 42.7667 179.856 42.8333 179.763 42.9C179.669 42.9667 179.569 43 179.463 43H178.503ZM182.143 37.78H184.403V34.1H182.303C181.556 34.1 181.003 34.2333 180.643 34.5C180.296 34.7533 180.123 35.2133 180.123 35.88C180.123 36.4267 180.283 36.88 180.603 37.24C180.936 37.6 181.449 37.78 182.143 37.78ZM194.604 43C194.471 43 194.357 42.96 194.264 42.88C194.184 42.7867 194.144 42.6733 194.144 42.54V33.06C194.144 32.9267 194.184 32.82 194.264 32.74C194.357 32.6467 194.471 32.6 194.604 32.6H195.544C195.677 32.6 195.784 32.6467 195.864 32.74C195.957 32.82 196.004 32.9267 196.004 33.06V36.9H197.824L200.524 32.9C200.591 32.8067 200.664 32.7333 200.744 32.68C200.824 32.6267 200.931 32.6 201.064 32.6H202.104C202.224 32.6 202.324 32.6267 202.404 32.68C202.484 32.7333 202.524 32.8133 202.524 32.92C202.524 32.9467 202.511 32.9867 202.484 33.04C202.471 33.08 202.451 33.12 202.424 33.16L199.424 37.58L202.824 42.42C202.891 42.5 202.924 42.5867 202.924 42.68C202.924 42.7867 202.884 42.8667 202.804 42.92C202.737 42.9733 202.644 43 202.524 43H201.304C201.184 43 201.084 42.9733 201.004 42.92C200.924 42.8667 200.851 42.7933 200.784 42.7L197.844 38.52H196.004V42.54C196.004 42.6733 195.957 42.7867 195.864 42.88C195.784 42.96 195.677 43 195.544 43H194.604ZM205.347 46.8C205.2 46.8 205.087 46.7533 205.007 46.66C204.927 46.58 204.887 46.4733 204.887 46.34V45.66C204.887 45.5267 204.927 45.4133 205.007 45.32C205.087 45.24 205.2 45.2 205.347 45.2H205.867C206.173 45.2 206.42 45.14 206.607 45.02C206.793 44.9 206.96 44.6933 207.107 44.4C207.267 44.12 207.453 43.7333 207.667 43.24L212.007 32.94C212.047 32.8333 212.1 32.7533 212.167 32.7C212.247 32.6333 212.36 32.6 212.507 32.6H213.387C213.507 32.6 213.607 32.64 213.687 32.72C213.767 32.8 213.807 32.8933 213.807 33C213.807 33.0533 213.8 33.1067 213.787 33.16C213.773 33.2 213.747 33.2667 213.707 33.36L209.907 42.36C209.707 42.84 209.487 43.34 209.247 43.86C209.02 44.38 208.76 44.86 208.467 45.3C208.187 45.7533 207.853 46.1133 207.467 46.38C207.08 46.66 206.627 46.8 206.107 46.8H205.347ZM208.127 42.7L204.087 33.36C204.02 33.2 203.987 33.0867 203.987 33.02C204 32.9 204.047 32.8 204.127 32.72C204.207 32.64 204.3 32.6 204.407 32.6H205.347C205.493 32.6 205.6 32.6333 205.667 32.7C205.747 32.7667 205.807 32.8467 205.847 32.94L209.167 40.88L208.127 42.7ZM215.344 43C215.237 43 215.137 42.96 215.044 42.88C214.964 42.8 214.924 42.7 214.924 42.58C214.924 42.54 214.93 42.4933 214.944 42.44C214.97 42.3733 215.01 42.3 215.064 42.22L218.544 37.68L215.284 33.38C215.23 33.3 215.19 33.2333 215.164 33.18C215.15 33.1267 215.144 33.0733 215.144 33.02C215.144 32.9 215.184 32.8 215.264 32.72C215.344 32.64 215.444 32.6 215.564 32.6H216.584C216.73 32.6 216.837 32.64 216.904 32.72C216.984 32.7867 217.05 32.8533 217.104 32.92L219.764 36.38L222.424 32.94C222.477 32.8733 222.537 32.8 222.604 32.72C222.684 32.64 222.797 32.6 222.944 32.6H223.924C224.044 32.6 224.144 32.64 224.224 32.72C224.304 32.8 224.344 32.9 224.344 33.02C224.344 33.0733 224.33 33.1267 224.304 33.18C224.29 33.2333 224.257 33.3 224.204 33.38L220.904 37.72L224.384 42.22C224.437 42.3 224.47 42.3667 224.484 42.42C224.51 42.4733 224.524 42.5267 224.524 42.58C224.524 42.7 224.484 42.8 224.404 42.88C224.324 42.96 224.224 43 224.104 43H223.044C222.91 43 222.804 42.9667 222.724 42.9C222.644 42.8333 222.577 42.7667 222.524 42.7L219.704 39.04L216.884 42.7C216.83 42.7533 216.764 42.82 216.684 42.9C216.617 42.9667 216.51 43 216.364 43H215.344ZM227.065 43C226.932 43 226.818 42.96 226.725 42.88C226.645 42.7867 226.605 42.6733 226.605 42.54V33.06C226.605 32.9267 226.645 32.82 226.725 32.74C226.818 32.6467 226.932 32.6 227.065 32.6H228.025C228.158 32.6 228.265 32.6467 228.345 32.74C228.425 32.82 228.465 32.9267 228.465 33.06V36.9H233.925V33.06C233.925 32.9267 233.965 32.82 234.045 32.74C234.138 32.6467 234.252 32.6 234.385 32.6H235.325C235.458 32.6 235.565 32.6467 235.645 32.74C235.738 32.82 235.785 32.9267 235.785 33.06V42.54C235.785 42.6733 235.738 42.7867 235.645 42.88C235.565 42.96 235.458 43 235.325 43H234.385C234.252 43 234.138 42.96 234.045 42.88C233.965 42.7867 233.925 42.6733 233.925 42.54V38.5H228.465V42.54C228.465 42.6733 228.425 42.7867 228.345 42.88C228.265 42.96 228.158 43 228.025 43H227.065ZM245.273 43C245.126 43 245.013 42.96 244.933 42.88C244.853 42.7867 244.813 42.6733 244.813 42.54V39.28H242.513V39.18C241.259 39.18 240.326 38.8733 239.713 38.26C239.113 37.6333 238.813 36.84 238.813 35.88C238.813 34.76 239.139 33.9333 239.793 33.4C240.459 32.8667 241.459 32.6 242.793 32.6H246.233C246.366 32.6 246.473 32.6467 246.553 32.74C246.646 32.82 246.693 32.9267 246.693 33.06V42.54C246.693 42.6733 246.646 42.7867 246.553 42.88C246.473 42.96 246.366 43 246.233 43H245.273ZM238.933 43C238.813 43 238.713 42.96 238.632 42.88C238.553 42.8 238.513 42.7067 238.513 42.6C238.513 42.5467 238.519 42.4933 238.533 42.44C238.559 42.3733 238.599 42.3067 238.653 42.24L241.033 38.72L242.953 38.86L240.413 42.7C240.359 42.7667 240.286 42.8333 240.193 42.9C240.099 42.9667 239.999 43 239.893 43H238.933ZM242.573 37.78H244.833V34.1H242.733C241.986 34.1 241.433 34.2333 241.073 34.5C240.726 34.7533 240.553 35.2133 240.553 35.88C240.553 36.4267 240.713 36.88 241.033 37.24C241.366 37.6 241.879 37.78 242.573 37.78Z" fill="#363853"/>
<g clip-path="url(#clip0_0_196)">
<g clip-path="url(#clip1_0_196)">
<path d="M48.1315 27.5667H50.2563C50.8077 27.5667 51.2562 28.0152 51.2562 28.5666V30.0315C51.2562 30.3875 51.5448 30.676 51.9007 30.676C52.2567 30.676 52.5452 30.3875 52.5452 30.0315V28.5666C52.5452 27.3044 51.5184 26.2777 50.2563 26.2777H48.1315C47.5894 26.2777 47.1484 25.8366 47.1484 25.2945C47.1484 24.7524 47.5894 24.3115 48.1315 24.3115H52.843C54.0959 24.3115 55.1151 23.2922 55.1151 22.0393C55.1151 20.7864 54.0958 19.7672 52.843 19.7672H49.0738C48.7178 19.7672 48.4293 20.0558 48.4293 20.4117C48.4293 20.7677 48.7178 21.0563 49.0738 21.0563H52.843C53.3851 21.0563 53.8261 21.4973 53.8261 22.0393C53.8261 22.5814 53.385 23.0224 52.843 23.0224H48.1315C46.8786 23.0224 45.8593 24.0417 45.8593 25.2945C45.8593 26.5474 46.8786 27.5667 48.1315 27.5667Z" fill="#363853"/>
<path d="M40.3886 31.8924H42.4971C43.0415 31.8924 43.4844 32.3354 43.4844 32.8798V34.3335C43.4844 34.6895 43.773 34.978 44.1289 34.978C44.4849 34.978 44.7734 34.6895 44.7734 34.3335V32.8798C44.7734 31.6246 43.7522 30.6034 42.4971 30.6034H40.3886C39.8533 30.6034 39.418 30.1679 39.418 29.6328C39.418 29.0977 39.8534 28.6622 40.3886 28.6622H42.8539C43.2098 28.6622 43.4984 28.3737 43.4984 28.0177C43.4984 27.6617 43.2098 27.3732 42.8539 27.3732H40.3886C39.1426 27.3732 38.1289 28.3868 38.1289 29.6328C38.1289 30.8788 39.1426 31.8924 40.3886 31.8924Z" fill="#363853"/>
<path d="M58.6523 40.8125C59.0083 40.8125 59.2969 40.5239 59.2969 40.168C59.2969 39.812 59.0083 39.5234 58.6523 39.5234C58.2964 39.5234 58.0078 39.812 58.0078 40.168C58.0078 40.5239 58.2964 40.8125 58.6523 40.8125Z" fill="#363853"/>
<path d="M61.832 42.2734C62.188 42.2734 62.4766 41.9849 62.4766 41.6289C62.4766 41.2729 62.188 40.9844 61.832 40.9844C61.4761 40.9844 61.1875 41.2729 61.1875 41.6289C61.1875 41.9849 61.4761 42.2734 61.832 42.2734Z" fill="#363853"/>
<path d="M63.7227 44.5078C64.0786 44.5078 64.3672 44.2192 64.3672 43.8633C64.3672 43.5073 64.0786 43.2188 63.7227 43.2188C63.3667 43.2188 63.0781 43.5073 63.0781 43.8633C63.0781 44.2192 63.3667 44.5078 63.7227 44.5078Z" fill="#363853"/>
<path d="M61.0586 39.2656C61.4146 39.2656 61.7031 38.9771 61.7031 38.6211C61.7031 38.2651 61.4146 37.9766 61.0586 37.9766C60.7026 37.9766 60.4141 38.2651 60.4141 38.6211C60.4141 38.9771 60.7026 39.2656 61.0586 39.2656Z" fill="#363853"/>
<path d="M58.9102 44.9375C59.2661 44.9375 59.5547 44.6489 59.5547 44.293C59.5547 43.937 59.2661 43.6484 58.9102 43.6484C58.5542 43.6484 58.2656 43.937 58.2656 44.293C58.2656 44.6489 58.5542 44.9375 58.9102 44.9375Z" fill="#363853"/>
<path d="M75.9114 36.8109H74.083L74.9867 34.9433C76.1331 34.715 77 33.7014 77 32.4889C77 31.2453 76.0882 30.2111 74.8981 30.0186C73.5827 27.6495 71.0131 25.8701 67.8968 25.1599V25.1107C67.8968 24.7548 67.6083 24.4662 67.2523 24.4662C66.9573 24.4662 66.7091 24.6646 66.6326 24.9351C66.2401 24.8845 65.8407 24.8517 65.4363 24.8349C65.333 24.6172 65.1116 24.4662 64.8545 24.4662C64.5973 24.4662 64.376 24.6172 64.2726 24.8349C63.8681 24.8517 63.4687 24.8845 63.0762 24.9352C62.9998 24.6647 62.7516 24.4662 62.4565 24.4662C62.1005 24.4662 61.812 24.7548 61.812 25.1107V25.1599C58.6958 25.8701 56.1261 27.6496 54.8108 30.0186C53.6207 30.2111 52.709 31.2453 52.709 32.4889C52.709 32.5615 52.7123 32.6333 52.7184 32.7043C49.7427 32.981 47.0692 34.2242 45.0633 36.0896H41.0136C40.7376 36.0896 40.4904 36.2134 40.3232 36.408H38.4304C38.1203 35.6246 37.3507 35.071 36.4734 35.071C35.3134 35.071 34.3698 36.0146 34.3698 37.1746C34.3698 37.2737 34.3776 37.3717 34.3912 37.4683C33.5809 37.7608 33 38.5375 33 39.4474C33 39.8514 33.1147 40.2398 33.3254 40.5722C33.1147 40.9047 33 41.293 33 41.697C33 42.857 33.9437 43.8007 35.1037 43.8007C35.9809 43.8007 36.7506 43.2471 37.0606 42.4636H38.7654C38.8436 42.7509 39.0592 42.988 39.3509 43.087L41.3718 43.7733C41.3597 43.9815 41.3532 44.1911 41.3532 44.4021C41.3532 44.6009 41.3589 44.7988 41.3695 44.9961C41.0535 45.0723 40.7585 45.2031 40.4961 45.3792C40.064 45.0894 39.5449 44.9197 38.9867 44.9197C37.4879 44.9197 36.2686 46.139 36.2686 47.6378C36.2686 47.6607 36.2704 47.6833 36.271 47.7061H35.5169C35.0913 47.7061 34.7141 47.9452 34.5324 48.3299C34.3508 48.7147 34.4059 49.1578 34.6763 49.4864L36.6098 51.8359C36.8174 52.088 37.1237 52.2327 37.4504 52.2327H64.7103C65.0663 52.2327 65.3548 51.9441 65.3548 51.5882C65.3548 51.2322 65.0663 50.9436 64.7103 50.9436H37.545L35.9415 48.9952H75.4853L73.8818 50.9436H67.7181C67.362 50.9436 67.0735 51.2322 67.0735 51.5882C67.0735 51.9441 67.362 52.2327 67.7181 52.2327H73.9764C74.3031 52.2327 74.6095 52.088 74.8169 51.8358L76.7504 49.4865C77.0207 49.1578 77.0759 48.7147 76.8942 48.3299C76.7126 47.9451 76.3354 47.7061 75.9099 47.7061H75.2716C75.905 46.61 76.143 45.311 75.9119 44.0346C75.8639 43.7702 75.657 43.5631 75.3925 43.5153C73.6466 43.1992 71.857 43.758 70.6048 45.0101C70.5283 45.0865 70.4554 45.1658 70.3842 45.2462C70.0148 45.0462 69.594 44.9301 69.1474 44.9214V43.695H69.835C70.925 43.695 71.8117 42.8083 71.8117 41.7183V40.8531H75.9114C76.5116 40.8531 77 40.3647 77 39.7645V37.8995C77 37.2992 76.5116 36.8109 75.9114 36.8109ZM39.2905 47.7062H37.56C37.5589 47.6835 37.5577 47.6608 37.5577 47.6379C37.5577 46.8499 38.1987 46.2089 38.9867 46.2089C39.2108 46.2089 39.4225 46.2614 39.6113 46.354C39.4054 46.7365 39.2881 47.1737 39.2881 47.6379C39.2882 47.6608 39.2899 47.6833 39.2905 47.7062ZM71.5163 45.9216C72.3595 45.0786 73.5223 44.6483 74.7005 44.7267C74.7727 45.812 74.412 46.8847 73.6953 47.7062H72.6325L73.5131 46.8256C73.7648 46.5739 73.7648 46.1658 73.5131 45.9141C73.2613 45.6624 72.8533 45.6624 72.6015 45.9141L71.6882 46.8275C71.6075 46.5698 71.4893 46.3286 71.3402 46.1101C71.3969 46.0456 71.4553 45.9826 71.5163 45.9216ZM58.5032 27.9422C59.4787 27.2886 60.6054 26.7984 61.812 26.4901V27.1534C61.812 27.5093 62.1005 27.7979 62.4565 27.7979C62.8126 27.7979 63.1011 27.5093 63.1011 27.1534V26.2345C63.4665 26.1825 63.8368 26.1482 64.2099 26.129V27.1534C64.2099 27.5093 64.4984 27.7979 64.8545 27.7979C65.2105 27.7979 65.499 27.5093 65.499 27.1534V26.129C65.8721 26.1482 66.2424 26.1826 66.6077 26.2345V27.1534C66.6077 27.5093 66.8962 27.7979 67.2523 27.7979C67.6083 27.7979 67.8968 27.5093 67.8968 27.1534V26.4901C69.1035 26.7984 70.2302 27.2886 71.2057 27.9423C72.1561 28.579 72.9304 29.3479 73.4945 30.1982C73.2768 30.294 73.0729 30.42 72.89 30.5732C72.4452 30.2005 71.8773 29.9861 71.2829 29.9861C70.6885 29.9861 70.1205 30.2005 69.6758 30.5732C69.231 30.2005 68.663 29.9861 68.0687 29.9861C67.4743 29.9861 66.9063 30.2005 66.4616 30.5732C66.0168 30.2005 65.4488 29.9861 64.8545 29.9861C64.26 29.9861 63.6921 30.2005 63.2473 30.5732C62.8025 30.2005 62.2346 29.9861 61.6402 29.9861C61.0458 29.9861 60.4778 30.2005 60.0331 30.5732C59.5884 30.2005 59.0204 29.9861 58.426 29.9861C57.8316 29.9861 57.2637 30.2005 56.8189 30.5732C56.6361 30.42 56.4321 30.294 56.2144 30.1982C56.7785 29.3478 57.5528 28.5789 58.5032 27.9422ZM55.2117 31.2751C55.642 31.2751 56.0441 31.5077 56.2612 31.8822C56.3765 32.0809 56.5889 32.2034 56.8188 32.2034C57.0486 32.2034 57.261 32.081 57.3763 31.8823C57.5935 31.5077 57.9957 31.2751 58.4259 31.2751C58.8562 31.2751 59.2584 31.5077 59.4755 31.8822C59.5908 32.0809 59.8031 32.2034 60.033 32.2034C60.2629 32.2034 60.4752 32.081 60.5906 31.8822C60.8077 31.5077 61.2098 31.2751 61.6401 31.2751C62.0703 31.2751 62.4725 31.5077 62.6898 31.8823C62.8051 32.081 63.0175 32.2034 63.2472 32.2034C63.4771 32.2034 63.6895 32.081 63.8048 31.8822C64.0219 31.5077 64.4241 31.2751 64.8544 31.2751C65.2846 31.2751 65.6868 31.5077 65.904 31.8823C66.0192 32.081 66.2317 32.2034 66.4615 32.2034C66.6914 32.2034 66.9037 32.081 67.019 31.8822C67.2361 31.5077 67.6383 31.2751 68.0686 31.2751C68.4988 31.2751 68.901 31.5077 69.1182 31.8823C69.2336 32.081 69.4459 32.2034 69.6757 32.2034C69.9056 32.2034 70.118 32.081 70.2333 31.8822C70.4504 31.5077 70.8525 31.2751 71.2828 31.2751C71.713 31.2751 72.1152 31.5077 72.3325 31.8823C72.4477 32.081 72.6602 32.2034 72.89 32.2034C73.1198 32.2034 73.3322 32.081 73.4475 31.8822C73.6646 31.5077 74.0668 31.2751 74.4971 31.2751C75.1663 31.2751 75.7108 31.8195 75.7108 32.4888C75.7108 33.1581 75.1663 33.7025 74.4971 33.7025C74.0668 33.7025 73.6646 33.4699 73.4475 33.0954C73.3322 32.8967 73.1198 32.7742 72.89 32.7742C72.6602 32.7742 72.4477 32.8966 72.3325 33.0953C72.1152 33.4699 71.713 33.7025 71.2828 33.7025C70.8525 33.7025 70.4504 33.4699 70.2333 33.0954C70.118 32.8967 69.9056 32.7742 69.6757 32.7742C69.4459 32.7742 69.2335 32.8966 69.1182 33.0953C68.901 33.4699 68.4988 33.7025 68.0686 33.7025C67.6383 33.7025 67.2361 33.4699 67.019 33.0954C66.9037 32.8967 66.6914 32.7742 66.4615 32.7742C66.2317 32.7742 66.0192 32.8966 65.904 33.0953C65.6868 33.4699 65.2846 33.7025 64.8544 33.7025C64.4241 33.7025 64.0219 33.4699 63.8048 33.0954C63.6895 32.8967 63.4771 32.7742 63.2472 32.7742C63.0175 32.7742 62.805 32.8966 62.6898 33.0953C62.4725 33.4699 62.0703 33.7025 61.6401 33.7025C61.2098 33.7025 60.8077 33.4699 60.5906 33.0954C60.4752 32.8967 60.2629 32.7742 60.033 32.7742C59.8031 32.7742 59.5908 32.8966 59.4755 33.0954C59.3486 33.3142 59.1583 33.4841 58.9363 33.5879C57.4222 32.9847 55.7569 32.6492 54.0094 32.6458C54.0026 32.5943 53.998 32.5422 53.998 32.4888C53.998 31.8195 54.5424 31.2751 55.2117 31.2751ZM41.3916 37.3786H43.8635C43.6095 37.6949 43.3712 38.0227 43.1518 38.3624H41.3916V37.3786ZM38.7328 41.1746H36.5567C36.2215 41.1746 35.9422 41.4316 35.9144 41.7657C35.8797 42.184 35.5236 42.5116 35.1037 42.5116C34.6546 42.5116 34.2891 42.1462 34.2891 41.697C34.2891 41.4535 34.397 41.2244 34.5851 41.0688C34.7331 40.9463 34.8188 40.7643 34.8188 40.5722C34.8188 40.38 34.7331 40.198 34.5851 40.0755C34.397 39.9199 34.2891 39.691 34.2891 39.4473C34.2891 38.9981 34.6546 38.6327 35.1037 38.6327C35.5236 38.6327 35.8797 38.9603 35.9144 39.3786C35.9422 39.7127 36.2215 39.9697 36.5567 39.9697H38.7329V41.1746H38.7328ZM38.9533 38.6808H37.0606C36.8236 38.082 36.3178 37.6184 35.7009 37.4327C35.6734 37.3505 35.6587 37.2635 35.6587 37.1745C35.6587 36.7253 36.0241 36.3599 36.4733 36.3599C36.8931 36.3599 37.2493 36.6876 37.2841 37.1058C37.3118 37.4399 37.5911 37.697 37.9264 37.697H40.1026V38.3624H39.6438C39.3678 38.3624 39.1206 38.4863 38.9533 38.6808ZM43.433 47.7062H40.5796C40.5785 47.6835 40.5773 47.6608 40.5773 47.6379C40.5773 46.8499 41.2183 46.2089 42.0063 46.2089C42.7942 46.2089 43.4352 46.8499 43.4352 47.6379C43.4353 47.6608 43.434 47.6835 43.433 47.7062ZM63.3116 47.7062H61.0679C61.0668 47.6835 61.0656 47.6608 61.0656 47.6379C61.0656 46.8499 61.7066 46.2089 62.4946 46.2089C62.8885 46.2089 63.2459 46.3692 63.5046 46.6279C63.3791 46.9404 63.3093 47.281 63.3093 47.6379C63.3092 47.6608 63.311 47.6833 63.3116 47.7062ZM62.4946 44.9197C60.9959 44.9197 59.7765 46.139 59.7765 47.6378C59.7765 47.6607 59.7782 47.6833 59.7788 47.7061H44.722C44.7226 47.6832 44.7244 47.6607 44.7244 47.6378C44.7244 46.3649 43.8446 45.294 42.6614 45C42.6491 44.8017 42.6423 44.6024 42.6423 44.4021C42.6423 44.3364 42.6432 44.2709 42.6445 44.2054L49.2366 46.4439C49.6807 46.5948 50.1349 46.6691 50.5847 46.6691C51.4345 46.6691 52.2687 46.4037 52.9891 45.8877C54.0906 45.0983 54.7223 43.8685 54.7223 42.5133C54.7223 42.0288 54.6392 41.5535 54.4753 41.1005C54.3541 40.7658 53.9846 40.5927 53.6498 40.7139C53.3151 40.835 53.142 41.2046 53.2632 41.5393C53.3761 41.8512 53.4334 42.1789 53.4334 42.5132C53.4334 43.4475 52.9978 44.2955 52.2383 44.8396C51.479 45.3838 50.5359 45.5235 49.6512 45.2232L40.022 41.9534V39.6514H50.5715C50.8948 39.6514 51.2133 39.7056 51.5182 39.8125C51.8543 39.9304 52.222 39.7534 52.3397 39.4173C52.4575 39.0813 52.2805 38.7137 51.9446 38.5959C51.5023 38.4409 51.0403 38.3623 50.5715 38.3623H44.7273C46.7835 35.6855 50.1654 33.9344 53.9831 33.9344C60.2364 33.9344 65.3238 38.6302 65.3238 44.4021C65.3238 44.6083 65.3166 44.8135 65.3036 45.0178C64.9142 45.1257 64.5596 45.3183 64.2609 45.5745C63.7855 45.1668 63.1685 44.9197 62.4946 44.9197ZM67.454 47.7062H64.6006C64.5995 47.6835 64.5983 47.6608 64.5983 47.6379C64.5983 46.8499 65.2393 46.2089 66.0272 46.2089C66.8152 46.2089 67.4563 46.8499 67.4563 47.6379C67.4563 47.6608 67.4551 47.6835 67.454 47.7062ZM67.8583 45.2197C67.7555 45.2725 67.6558 45.3304 67.5611 45.3954C67.2745 45.1988 66.9482 45.0568 66.5974 44.9815C66.6073 44.7892 66.6128 44.5961 66.6128 44.4022C66.6128 44.1646 66.6029 43.9292 66.5878 43.695H67.8583V45.2197ZM70.5226 47.6378C70.5226 47.6607 70.5214 47.6834 70.5203 47.7061H68.743C68.7436 47.6832 68.7454 47.6607 68.7454 47.6378C68.7454 47.181 68.6316 46.7505 68.4317 46.3723C68.6296 46.2679 68.8547 46.2088 69.0937 46.2088C69.8816 46.2088 70.5226 46.8498 70.5226 47.6378ZM70.5226 41.7184C70.5226 42.0976 70.2142 42.406 69.835 42.406H66.4281C66.33 41.8757 66.1959 41.3568 66.0241 40.8531H70.5226V41.7184ZM75.7109 39.564H65.4932C65.2456 39.0557 64.9601 38.5668 64.6404 38.0999H67.375C67.731 38.0999 68.0195 37.8113 68.0195 37.4554C68.0195 37.0994 67.731 36.8109 67.375 36.8109H63.6187C63.0022 36.1339 62.3059 35.5221 61.5421 34.9893C61.5747 34.9906 61.6074 34.9916 61.6401 34.9916C62.2345 34.9916 62.8024 34.7771 63.2472 34.4044C63.692 34.7771 64.26 34.9916 64.8544 34.9916C65.4487 34.9916 66.0167 34.7771 66.4615 34.4044C66.9062 34.7771 67.4743 34.9916 68.0686 34.9916C68.6629 34.9916 69.2309 34.7771 69.6757 34.4044C70.1204 34.7771 70.6885 34.9916 71.2828 34.9916C71.8772 34.9916 72.4451 34.7771 72.89 34.4044C73.105 34.5846 73.3489 34.7274 73.6106 34.8272L72.6508 36.8109H70.3828C70.0268 36.8109 69.7383 37.0994 69.7383 37.4554C69.7383 37.8113 70.0268 38.0999 70.3828 38.0999H75.7109V39.564Z" fill="#363853"/>
</g>
</g>
<defs>
<filter id="filter0_d_0_196" x="0" y="0" width="282" height="72" filterUnits="userSpaceOnUse" color-interpolation-filters="sRGB">
<feFlood flood-opacity="0" result="BackgroundImageFix"/>
<feColorMatrix in="SourceAlpha" type="matrix" values="0 0 0 0 0 0 0 0 0 0 0 0 0 0 0 0 0 0 127 0" result="hardAlpha"/>
<feMorphology radius="1" operator="dilate" in="SourceAlpha" result="effect1_dropShadow_0_196"/>
<feOffset/>
<feComposite in2="hardAlpha" operator="out"/>
<feColorMatrix type="matrix" values="0 0 0 0 0.925 0 0 0 0 0.925 0 0 0 0 0.925 0 0 0 1 0"/>
<feBlend mode="normal" in2="BackgroundImageFix" result="effect1_dropShadow_0_196"/>
<feBlend mode="normal" in="SourceGraphic" in2="effect1_dropShadow_0_196" result="shape"/>
</filter>
<clipPath id="clip0_0_196">
<rect width="44" height="44" fill="white" transform="translate(33 14)"/>
</clipPath>
<clipPath id="clip1_0_196">
<rect width="44" height="44" fill="white" transform="translate(33 14)"/>
</clipPath>
</defs>
</svg>
