<svg width="39.000000" height="39.000000" viewBox="0 0 39 39" fill="none" xmlns="http://www.w3.org/2000/svg" xmlns:xlink="http://www.w3.org/1999/xlink">
	<desc>
			Created with Pixso.
	</desc>
	<defs/>
	<circle id="Ellipse 4" cx="19.500000" cy="19.500000" r="19.500000" fill="#ECECEC" fill-opacity="1.000000"/>
	<path id="ic-twitter" d="M29.5263 12.981C28.7715 13.3064 27.95 13.5408 27.1039 13.6321C27.9824 13.1101 28.6402 12.2856 28.954 11.3132C28.1297 11.8037 27.2266 12.1475 26.2849 12.3296C25.8914 11.9089 25.4153 11.5737 24.8865 11.345C24.3577 11.1162 23.7875 10.9988 23.2113 11C20.8801 11 19.0054 12.8896 19.0054 15.2085C19.0054 15.5339 19.0449 15.8596 19.109 16.1729C15.6185 15.9905 12.5053 14.3228 10.4357 11.7698C10.0586 12.4138 9.86096 13.1472 9.8634 13.8936C9.8634 15.354 10.6059 16.6416 11.7382 17.3989C11.0709 17.3726 10.4193 17.1892 9.83624 16.8635L9.83624 16.9155C9.83624 18.9604 11.2818 20.655 13.2084 21.0449C12.8466 21.1389 12.4745 21.1868 12.1008 21.188C11.827 21.188 11.5679 21.1609 11.3065 21.1238C11.8393 22.7913 13.3909 24.0024 15.2386 24.042C13.793 25.1743 11.9824 25.8403 10.0163 25.8403C9.66357 25.8403 9.33795 25.8279 9 25.7886C10.8649 26.9849 13.0776 27.6755 15.4606 27.6755C23.1965 27.6755 27.4295 21.2668 27.4295 15.7041C27.4295 15.5217 27.4295 15.3391 27.4172 15.1565C28.2361 14.5571 28.954 13.8147 29.5263 12.981Z" fill="#31352B" fill-opacity="1.000000" fill-rule="nonzero"/>
</svg>
